<svg width="80" height="71" viewBox="0 0 80 71" fill="none" xmlns="http://www.w3.org/2000/svg">
<path d="M39.4508 31.1734C38.5149 31.179 37.6017 31.4612 36.8262 31.9844C36.0508 32.5075 35.4479 33.2483 35.0936 34.1132C34.7393 34.9781 34.6495 35.9284 34.8355 36.8442C35.0215 37.76 35.475 38.6003 36.1387 39.259C36.8025 39.9178 37.6468 40.3656 38.5651 40.5458C39.4834 40.7261 40.4346 40.6307 41.2987 40.2718C42.1629 39.913 42.9012 39.3066 43.4206 38.5292C43.9399 37.7519 44.2171 36.8384 44.2171 35.9039C44.2133 34.6456 43.709 33.4403 42.8151 32.5532C41.9213 31.6661 40.7111 31.1698 39.4508 31.1734V31.1734ZM24.1106 31.1734C23.1747 31.179 22.2614 31.4612 21.4859 31.9844C20.7105 32.5075 20.1076 33.2483 19.7533 34.1132C19.399 34.9781 19.3092 35.9284 19.4952 36.8442C19.6812 37.76 20.1347 38.6003 20.7984 39.259C21.4622 39.9178 22.3065 40.3656 23.2248 40.5458C24.1431 40.7261 25.0943 40.6307 25.9585 40.2718C26.8226 39.913 27.5609 39.3066 28.0803 38.5292C28.5997 37.7519 28.8768 36.8384 28.8768 35.9039C28.873 34.6457 28.3688 33.4405 27.4751 32.5534C26.5813 31.6663 25.3713 31.1699 24.1111 31.1734H24.1106ZM54.7943 31.1734C53.8584 31.179 52.9451 31.4612 52.1697 31.9844C51.3942 32.5075 50.7913 33.2483 50.437 34.1132C50.0828 34.9781 49.9929 35.9284 50.179 36.8442C50.365 37.76 50.8184 38.6003 51.4822 39.259C52.1459 39.9178 52.9902 40.3656 53.9085 40.5458C54.8269 40.7261 55.7781 40.6307 56.6422 40.2718C57.5063 39.913 58.2447 39.3066 58.764 38.5292C59.2834 37.7519 59.5606 36.8384 59.5605 35.9039C59.5587 35.2809 59.4339 34.6643 59.1934 34.0893C58.9529 33.5144 58.6013 32.9924 58.1587 32.5531C57.7161 32.1138 57.1912 31.7659 56.6139 31.5292C56.0367 31.2925 55.4184 31.1716 54.7943 31.1734V31.1734ZM76.1564 23.5022C73.9987 20.1503 70.9744 17.183 67.1729 14.6802C59.8276 9.85208 50.1765 7.19194 39.9971 7.19194C36.6426 7.18808 33.2945 7.48309 29.9926 8.07348C27.9296 6.09276 25.6183 4.38732 23.1162 2.99975C13.845 -1.62246 5.67486 0.0985975 1.54653 1.58377C1.23379 1.69417 0.953752 1.88106 0.732001 2.12736C0.510251 2.37367 0.353861 2.67153 0.277125 2.99374C0.200388 3.31594 0.205751 3.65221 0.292725 3.97181C0.379698 4.29141 0.545508 4.58416 0.775001 4.82329C3.68639 7.82914 8.50305 13.7701 7.31944 19.1717C2.71639 23.8726 0.220556 29.541 0.220556 35.443C0.220556 41.4575 2.71639 47.1258 7.31944 51.8268C8.50361 57.2289 3.68694 63.1724 0.775556 66.1781C0.546488 66.4171 0.381038 66.7097 0.294311 67.029C0.207583 67.3483 0.202341 67.6842 0.279062 68.006C0.355783 68.3279 0.512023 68.6254 0.733521 68.8715C0.955018 69.1176 1.23472 69.3043 1.54708 69.4147C5.67542 70.8997 13.8456 72.6245 23.1199 68.0002C25.6218 66.6124 27.9331 64.907 29.9962 62.9264C33.2979 63.5169 36.6458 63.8121 40 63.8085C50.1824 63.8085 59.8333 61.1517 67.176 56.3237C70.9775 53.8208 74.0017 50.8564 76.1592 47.5015C78.5632 43.768 79.78 39.7475 79.78 35.5584C79.7769 31.2566 78.5603 27.2393 76.1564 23.5028V23.5022ZM39.5815 56.8416C35.3885 56.854 31.212 56.3178 27.1585 55.2469L24.3628 57.9361C22.8111 59.4224 21.0781 60.7076 19.2047 61.7614C16.9249 62.9012 14.4499 63.6009 11.91 63.8234C12.0465 63.5779 12.1712 63.3294 12.3047 63.0807C15.1064 57.9332 15.8622 53.3072 14.5721 49.2027C9.98986 45.6025 7.2418 40.9933 7.2418 35.9734C7.2418 24.4498 21.7215 15.1076 39.5815 15.1076C57.4415 15.1076 71.9242 24.4503 71.9242 35.9734C71.9242 47.4986 57.4444 56.8416 39.5815 56.8416Z" fill="#343CED"/>
</svg>
